<?xml version="1.0" encoding="UTF-8"?>
<svg id="Layer_1" xmlns="http://www.w3.org/2000/svg" version="1.1" viewBox="0 0 512 512">
  <!-- Generator: Adobe Illustrator 29.6.1, SVG Export Plug-In . SVG Version: 2.1.1 Build 9)  -->
  <defs>
    <style>
      .st0 {
        fill: #fff;
      }
    </style>
  </defs>
  <path d="M71.48,16.65h343.93c48.16,0,87.26,39.1,87.26,87.26v329.3c0,34.3-27.85,62.14-62.14,62.14H71.48c-34.3,0-62.14-27.85-62.14-62.14V78.79c0-34.3,27.85-62.14,62.14-62.14Z"/>
  <g>
    <path class="st0" d="M451.71,293.76l-392.88.2c-33.76,4.74-33.3,52.33.56,56.59h393.09c34.49-4.1,34.48-53.56-.77-56.8ZM457.02,337.43c-5.67,2.22-28.97.78-36.81.81-120.47.59-241.59-.32-362.38.05-17.27-3.56-16.06-30.74,1.52-32.3,27.12-2.4,57.41,2.34,84.74-.55,2.29-.42,4.26.62,6.62.62,80.84-.12,162.01-.13,242.63,0,19.06,1.65,42.13-2.3,60.7-.05,14.7,1.79,17.55,25.71,2.98,31.42Z"/>
    <path class="st0" d="M85.45,240.8h335.59c40.95-2.8,35.3-46.46,26.66-75.09-26.27-87.11-128.3-115.05-209.97-110.52-64.27,3.56-133.66,27.75-168.77,84.6-18.71,30.3-35.86,95.72,16.49,101.01ZM72.68,158.09c28.08-60.76,102.29-87.02,165.06-90.62,78.87-4.52,182.52,23.26,200.96,111.85,3.88,18.63,8.41,48.22-18.42,49.2H86.22c-34.72-1.52-22.91-50.16-13.55-70.43Z"/>
    <path class="st0" d="M48.23,271.89c1.22-.56,5.16-4.92,6.97-6.12,5.99-3.96,14.07-7.18,20.98-4.19,23.38,10.11,35.35,27.56,64.18,17.18,12.54-4.52,25.55-18.98,36.46-19.59,12.24-.69,13.43,5.45,21.13,11.94,19.63,16.53,41.22,14.99,62.14,1.46,11.95-7.73,13.44-14.68,30.21-9.35,13.47,4.29,18.92,15.36,33.43,18.78,30.41,7.18,30.34-13.85,53.3-19.95,1.56-.41,4.25-1.21,5.71-1.26,10.72-.39,26.39,15.64,36.6,20.04,19.54,8.43,39.18,1.83,52.71-13.57l-9.47-7.18c-11.06,12.77-27.07,16.82-42.2,8.19-22.77-12.99-30.41-28.56-59.65-11.78-7.37,4.23-14.23,14.16-21.87,14.99-21.51,2.33-25.83-12.5-43.39-18.8-32.06-11.5-35.96,15.05-62,18.6-29.97,4.09-30.69-27.54-61.03-23.4-16.26,2.21-27.03,21.48-47.05,22.84-13.44.91-32-14.3-44.11-19.6-16.08-7.04-30.54,2.51-42.23,13.07,2.27,1.86,5.95,9.2,9.19,7.7Z"/>
    <path class="st0" d="M342.1,192.24c11.85,2.55,10.96-20.54,0-18.12-7.03,1.55-7,16.61,0,18.12Z"/>
    <path class="st0" d="M157.64,132.56c13.28.71,10.31-17.87-1.35-15.25-7.24,1.63-8.43,14.72,1.35,15.25Z"/>
    <path class="st0" d="M260.48,191.61c8.88-1.15,7.51-19-2.83-16.73-7.73,1.7-7.05,18.01,2.83,16.73Z"/>
    <circle class="st0" cx="225.16" cy="140.24" r="7.54"/>
    <path class="st0" d="M128.42,186.21c7.88-1.19,6.2-16.48-2.08-15.18-7,1.1-7.84,16.68,2.08,15.18Z"/>
    <path class="st0" d="M363.4,132.5c6.68-1.31,4.67-17.44-2.88-15.21-6.19,1.83-6.23,16.99,2.88,15.21Z"/>
    <circle class="st0" cx="238.94" cy="90.62" r="6.49" transform="translate(-11.43 39.44) rotate(-9.22)"/>
    <circle class="st0" cx="404.68" cy="189.46" r="6.22" transform="translate(-32.7 98.05) rotate(-13.28)"/>
    <circle class="st0" cx="303.36" cy="120.5" r="5.85"/>
    <path class="st0" d="M421,366.69l-330.68.22c-59.89,10.77-22.47,91.22,24.35,90.36l283.98-.09c46.71-.21,82.45-80.7,22.36-90.49ZM400.2,444.92l-287.06.07c-24.38-2.7-43.95-25.44-41.09-50.28.89-7.7,9.05-14.92,16.72-15.52l332.99-.2c40.19,9.41,8.45,65.23-21.57,65.94Z"/>
  </g>
</svg>